<svg width="64" height="26" viewBox="0 0 64 26" fill="none" xmlns="http://www.w3.org/2000/svg">
<mask id="mask0_2054_17424" style="mask-type:luminance" maskUnits="userSpaceOnUse" x="0" y="0" width="64" height="26">
<path d="M63.5625 0.0673828H0.3125V25.9424H63.5625V0.0673828Z" fill="white"/>
</mask>
<g mask="url(#mask0_2054_17424)">
<path d="M11.876 3.40332C11.1347 4.2773 9.94874 4.96667 8.76281 4.8682C8.6146 3.68643 9.19521 2.43085 9.87471 1.65533C10.6159 0.756722 11.9129 0.116617 12.963 0.0673828C13.0867 1.29836 12.6048 2.50471 11.876 3.40332ZM12.9507 5.10208C11.2336 5.00361 9.76345 6.07455 8.9481 6.07455C8.12053 6.07455 6.87278 5.15124 5.51391 5.17597C3.74737 5.20055 2.10432 6.1976 1.20252 7.78561C-0.650505 10.9615 0.720727 15.6638 2.512 18.2489C3.38914 19.529 4.43909 20.9323 5.82269 20.8831C7.13225 20.8338 7.65104 20.0337 9.23229 20.0337C10.8259 20.0337 11.283 20.8831 12.6666 20.8585C14.0995 20.8338 15.0014 19.5783 15.8784 18.298C16.8791 16.8455 17.2868 15.4299 17.3115 15.3561C17.2868 15.3315 14.5443 14.2851 14.5196 11.1338C14.4948 8.49947 16.6814 7.24396 16.7803 7.17007C15.5449 5.34818 13.6178 5.15125 12.9507 5.10208ZM22.8706 1.53224V20.7231H25.8601V14.1619H29.9986C33.7788 14.1619 36.4347 11.577 36.4347 7.83477C36.4347 4.09266 33.8282 1.53224 30.0973 1.53224H22.8706ZM25.8601 4.04342H29.3067C31.9009 4.04342 33.3834 5.42207 33.3834 7.84713C33.3834 10.2722 31.9009 11.6631 29.2945 11.6631H25.8601V4.04342ZM41.895 20.8707C43.7727 20.8707 45.5145 19.923 46.3051 18.4211H46.3669V20.7231H49.1341V11.1708C49.1341 8.401 46.9105 6.6162 43.4886 6.6162C40.3138 6.6162 37.9666 8.42573 37.8801 10.9122H40.5731C40.7955 9.73055 41.895 8.95501 43.4021 8.95501C45.2305 8.95501 46.2558 9.80429 46.2558 11.3677V12.4263L42.5251 12.648C39.0537 12.8571 37.176 14.2728 37.176 16.7348C37.176 19.2214 39.1155 20.8707 41.895 20.8707ZM42.698 18.5935C41.1044 18.5935 40.0914 17.8303 40.0914 16.6609C40.0914 15.4545 41.0673 14.7529 42.9328 14.6421L46.2558 14.4328V15.5161C46.2558 17.3132 44.7239 18.5935 42.698 18.5935ZM52.8278 25.9424C55.7433 25.9424 57.1146 24.8345 58.3129 21.4739L63.563 6.80078H60.5242L57.0033 18.1381H56.9416L53.4208 6.80078H50.2953L55.3604 20.7723L55.0885 21.6217C54.6314 23.0619 53.8902 23.6158 52.5685 23.6158C52.3337 23.6158 51.8766 23.5912 51.6913 23.5666V25.8685C51.8642 25.9178 52.6056 25.9424 52.8278 25.9424Z" fill="white"/>
</g>
</svg>
