<svg width="64" height="26" viewBox="0 0 64 26" fill="none" xmlns="http://www.w3.org/2000/svg">
<path d="M30.4764 19.7306H28.1406V1.51978H34.3355C35.075 1.50431 35.8103 1.63565 36.4987 1.90624C37.1872 2.17683 37.8154 2.5813 38.347 3.09631C38.8839 3.58005 39.3113 4.1733 39.6004 4.83621C39.8893 5.49918 40.0334 6.21635 40.0227 6.93956C40.0381 7.66664 39.8962 8.38856 39.607 9.0557C39.3178 9.72284 38.888 10.3194 38.347 10.8046C37.2637 11.8391 35.9266 12.3559 34.3355 12.355H30.4764V19.7306ZM30.4764 10.1187H34.3936C34.823 10.1315 35.2504 10.0543 35.6484 9.89218C36.0463 9.73017 36.4061 9.48652 36.7047 9.17717C37.0018 8.88794 37.2378 8.54208 37.3991 8.15985C37.5603 7.77762 37.6434 7.36678 37.6434 6.95192C37.6434 6.53691 37.5603 6.12622 37.3991 5.74399C37.2378 5.36175 37.0018 5.01589 36.7047 4.72667C36.4098 4.4107 36.0513 4.16123 35.6529 3.99464C35.2544 3.82806 34.8251 3.74819 34.3936 3.76034H30.4764V10.1187Z" fill="white"/>
<path d="M45.4065 6.86426C47.1329 6.86426 48.4957 7.32641 49.4947 8.25044C50.4939 9.17461 50.9929 10.4416 50.992 12.0516V19.7309H48.7577V18.0017H48.6562C47.6891 19.4257 46.4027 20.1377 44.7971 20.1377C43.4266 20.1377 42.2801 19.7309 41.3573 18.9171C40.9144 18.5437 40.5605 18.0759 40.321 17.548C40.0815 17.0202 39.9628 16.4455 39.9733 15.8657C39.9733 14.5764 40.4597 13.5511 41.4328 12.7898C42.4057 12.0283 43.7046 11.6467 45.3296 11.6448C46.7165 11.6448 47.8587 11.899 48.7563 12.4075V11.8728C48.759 11.4776 48.6738 11.0868 48.5069 10.7287C48.34 10.3706 48.0956 10.0541 47.7916 9.80236C47.1739 9.24418 46.3689 8.93958 45.537 8.94935C44.2323 8.94935 43.1998 9.50049 42.4396 10.6029L40.3824 9.30542C41.514 7.67803 43.1887 6.86426 45.4065 6.86426ZM42.3844 15.9166C42.3828 16.2143 42.4524 16.5082 42.5871 16.7735C42.7219 17.0389 42.918 17.2682 43.1592 17.4422C43.6757 17.8493 44.317 18.065 44.9741 18.0526C45.9598 18.0509 46.9046 17.658 47.6015 16.96C48.3752 16.2304 48.7622 15.3747 48.7622 14.3924C48.0338 13.8113 47.0182 13.5206 45.7154 13.5206C44.7666 13.5206 43.9754 13.7497 43.3419 14.2079C42.7021 14.6729 42.3844 15.2381 42.3844 15.9166Z" fill="white"/>
<path d="M63.816 7.27148L56.0165 25.2237H53.6053L56.4997 18.9423L51.3711 7.27148H53.91L57.6167 16.2222H57.6675L61.2727 7.27148H63.816Z" fill="white"/>
<path d="M21.0385 10.7659C21.0394 10.053 20.9793 9.34132 20.8587 8.63867H11.0078V12.6678H16.65C16.5346 13.3114 16.2902 13.9249 15.9315 14.4713C15.573 15.0177 15.1077 15.4856 14.5638 15.8472V18.4625H17.931C19.9026 16.642 21.0385 13.9495 21.0385 10.7659Z" fill="white"/>
<path d="M11.0067 20.9898C13.8257 20.9898 16.1991 20.0628 17.9299 18.4644L14.5627 15.849C13.6254 16.4854 12.4184 16.8487 11.0067 16.8487C8.2821 16.8487 5.96959 15.0091 5.1426 12.5303H1.67383V15.2257C2.54323 16.9583 3.87631 18.415 5.5244 19.4329C7.17249 20.4506 9.07057 20.9897 11.0067 20.9898Z" fill="white"/>
<path d="M5.14367 12.531C4.70638 11.232 4.70638 9.82529 5.14367 8.52637V5.83105H1.67478C0.943394 7.28868 0.5625 8.89739 0.5625 10.5287C0.5625 12.1599 0.943394 13.7686 1.67478 15.2263L5.14367 12.531Z" fill="white"/>
<path d="M11.0067 4.20919C12.4964 4.18482 13.9358 4.74846 15.0138 5.77842L17.9951 2.79249C16.1047 1.0141 13.6001 0.0377239 11.0067 0.0680695C9.07057 0.0681558 7.17249 0.607217 5.5244 1.62507C3.87631 2.64293 2.54323 4.09952 1.67383 5.83219L5.1426 8.52764C5.96959 6.04867 8.2821 4.20919 11.0067 4.20919Z" fill="white"/>
</svg>
