<svg width="35" height="22" viewBox="0 0 35 22" fill="none" xmlns="http://www.w3.org/2000/svg">
<path d="M0.3125 10.9971C0.3125 16.9564 5.09476 21.7861 10.9782 21.7861C13.0729 21.7861 15.129 21.1473 16.8695 19.9867C11.2555 15.3673 11.294 6.65032 16.8695 2.0309C15.129 0.862406 13.0729 0.231423 10.9782 0.231423C5.09476 0.223633 0.3125 5.06118 0.3125 10.9971ZM17.5625 19.4725C22.9917 15.188 22.9685 6.83727 17.5625 2.52945C12.1565 6.83727 12.1334 15.1959 17.5625 19.4725ZM34.8125 10.9971C34.8125 5.06118 30.0302 0.223633 24.1468 0.223633C22.0521 0.223633 19.996 0.862406 18.2555 2.02311C23.8079 6.64253 23.8927 15.3828 18.2555 19.9789C19.996 21.1473 22.0675 21.7784 24.1468 21.7784C30.0302 21.7861 34.8125 16.9564 34.8125 10.9971Z" fill="white"/>
</svg>
