<svg width="74" height="16" viewBox="0 0 74 16" fill="none" xmlns="http://www.w3.org/2000/svg">
<path d="M0.5 0.874939H6.58755C8.10071 0.874939 9.28796 1.23577 10.1609 1.94579C11.0339 2.66745 11.4762 3.72665 11.4762 5.1467C11.4762 6.48526 11.0688 7.54448 10.2541 8.32434C9.43928 9.1042 8.3335 9.49994 6.92511 9.49994H2.96761V14.9007H0.5V0.874939ZM2.96761 2.93517V7.53284H6.40131C8.19383 7.53284 9.07844 6.76462 9.07844 5.22818C9.07844 3.70338 8.11235 2.94679 6.18017 2.94679H2.96761V2.93517Z" fill="white"/>
<path d="M18.786 4.54168V6.69502C18.3903 6.66011 18.1341 6.63682 17.9945 6.63682C16.0389 6.63682 15.0613 7.90554 15.0613 10.443V14.9126H12.8381V4.73955H14.9449V6.76486C15.6665 5.2517 16.8071 4.49512 18.3553 4.49512L18.786 4.54168Z" fill="white"/>
<path d="M22.4536 0.817383V3.02892H20.207V0.817383H22.4536ZM22.4536 4.73995V14.913H20.207V4.73995H22.4536Z" fill="white"/>
<path d="M24.0469 4.73926H26.4912L29.0984 12.5611L31.6009 4.73926H33.929L30.2858 14.9356H27.7599L24.0469 4.73926Z" fill="white"/>
<path d="M34.6962 7.88284C34.9291 5.5782 36.4189 4.4375 39.1542 4.4375C40.4229 4.4375 41.4473 4.68193 42.2039 5.18244C42.9604 5.68295 43.3329 6.46281 43.3329 7.51039V12.6668C43.3329 12.9577 43.3678 13.1556 43.4377 13.2604C43.5075 13.3651 43.6471 13.4233 43.8567 13.4233C44.0197 13.4233 44.1826 13.4117 44.3689 13.3884V14.9714C43.7868 15.1111 43.3096 15.1925 42.9138 15.1925C41.9595 15.1925 41.4007 14.7852 41.261 13.9704C40.4113 14.7852 39.2124 15.1925 37.6877 15.1925C36.6402 15.1925 35.8021 14.9249 35.1851 14.3778C34.5683 13.8307 34.2539 13.0974 34.2539 12.1546C34.2539 11.8636 34.2888 11.5959 34.3471 11.3515C34.4169 11.107 34.4868 10.8859 34.5799 10.6997C34.6613 10.5134 34.801 10.3505 34.999 10.1875C35.1851 10.0245 35.3481 9.89652 35.4761 9.79176C35.6042 9.68701 35.8021 9.59388 36.093 9.50076C36.3724 9.40764 36.5819 9.33781 36.7215 9.29125C36.8612 9.24469 37.094 9.19814 37.4433 9.13994C37.7808 9.09338 38.0135 9.04682 38.1183 9.03519C38.2348 9.0119 38.4675 8.98862 38.8167 8.94206C39.6198 8.8373 40.1669 8.74419 40.4579 8.67434C40.749 8.60451 40.9468 8.48812 41.0516 8.34843C41.1447 8.24368 41.1911 7.99925 41.1911 7.61514C41.1911 6.59085 40.4928 6.07869 39.0961 6.07869C38.3627 6.07869 37.8274 6.21838 37.4781 6.49773C37.1406 6.77707 36.9195 7.24267 36.8263 7.89449H34.6962V7.88284ZM41.1563 9.81503C40.9817 9.90815 40.7838 9.98963 40.5627 10.0595C40.3416 10.1293 40.1553 10.1759 40.0156 10.1991C39.876 10.2224 39.6664 10.2457 39.3638 10.2923C39.0728 10.3272 38.8749 10.3621 38.7817 10.3737C38.5024 10.4087 38.2929 10.4552 38.13 10.4785C37.967 10.5134 37.7808 10.5716 37.5479 10.6414C37.3152 10.7229 37.1405 10.816 37.0126 10.9324C36.8845 11.0488 36.7797 11.2002 36.6866 11.3864C36.5936 11.5726 36.547 11.8054 36.547 12.0615C36.547 12.5504 36.7099 12.9228 37.0243 13.1789C37.3501 13.4466 37.7925 13.5747 38.3744 13.5747C39.3754 13.5747 40.1436 13.3069 40.6791 12.7715C40.9817 12.4689 41.1331 11.8869 41.1331 11.0139V9.81503H41.1563Z" fill="white"/>
<path d="M50.8186 4.74092V6.38211H48.77V11.7364C48.77 12.0506 48.7817 12.2718 48.7933 12.3998C48.8049 12.5279 48.8399 12.6675 48.9097 12.8189C48.9796 12.9702 49.0959 13.0749 49.2589 13.1215C49.4219 13.1797 49.6546 13.203 49.934 13.203C50.3066 13.203 50.5975 13.1913 50.8186 13.168V14.9373C50.3763 14.9838 49.8642 15.0188 49.3055 15.0188C48.9097 15.0188 48.5606 14.9838 48.2695 14.9256C47.9785 14.8674 47.7225 14.7976 47.5246 14.7161C47.3268 14.6347 47.1637 14.5066 47.0357 14.3087C46.9077 14.1225 46.8029 13.9595 46.7331 13.8315C46.6632 13.7035 46.6051 13.4823 46.5702 13.168C46.5353 12.8538 46.5236 12.6093 46.5236 12.4464C46.5236 12.2834 46.5236 11.9924 46.5236 11.5851C46.5236 11.5385 46.5236 11.4919 46.5236 11.457C46.5236 11.4221 46.5236 11.3872 46.5236 11.3406C46.5236 11.2941 46.5236 11.2475 46.5236 11.2126V6.38211H44.8242V4.74092H46.5236V1.67969H48.77V4.74092H50.8186Z" fill="white"/>
<path d="M62.6313 14.9121H53.2148C53.2265 14.2952 53.308 13.7249 53.4709 13.2127C53.6339 12.7006 53.8084 12.2583 54.018 11.8974C54.2158 11.5366 54.5185 11.1641 54.9259 10.7917C55.3216 10.4192 55.6825 10.1049 56.0083 9.86048C56.3342 9.61605 56.7765 9.30178 57.3353 8.92931C57.3702 8.90604 57.568 8.778 57.9172 8.54521C58.2664 8.31241 58.4759 8.17274 58.5575 8.11453C58.639 8.05633 58.8135 7.91666 59.0928 7.6955C59.3722 7.47436 59.5467 7.29976 59.6399 7.17172C59.7214 7.04368 59.8378 6.85746 59.9891 6.6363C60.1404 6.41514 60.2452 6.18235 60.2918 5.96119C60.3382 5.7284 60.3732 5.48397 60.3732 5.22789C60.3732 4.50624 60.1754 3.93589 59.768 3.52851C59.3722 3.10948 58.8251 2.9116 58.1384 2.9116C57.7427 2.9116 57.4052 2.96979 57.1141 3.09783C56.8231 3.22587 56.602 3.38883 56.439 3.57507C56.276 3.77294 56.1364 4.02902 56.0316 4.33164C55.9268 4.64592 55.857 4.9369 55.822 5.20462C55.7871 5.48397 55.764 5.79823 55.7523 6.1707H53.564V5.82152C53.564 4.33164 53.983 3.15604 54.8211 2.28306C55.6592 1.41008 56.7882 0.967773 58.1966 0.967773C59.5351 0.967773 60.6177 1.34024 61.4325 2.09682C62.2472 2.8534 62.6546 3.85442 62.6546 5.09985C62.6546 5.60036 62.5731 6.0776 62.4217 6.5199C62.2589 6.96221 62.0959 7.32303 61.9213 7.6024C61.7467 7.88175 61.4325 8.19601 61.0018 8.56848C60.5711 8.94095 60.2452 9.19703 60.0356 9.3367C59.8262 9.47638 59.4421 9.74408 58.8717 10.1282C57.2305 11.1874 56.2411 12.1186 55.9152 12.9101H62.6313V14.9121Z" fill="white"/>
<path d="M73.3414 9.74549V11.6427H71.5838V14.9135H69.4189L69.3956 11.6427H63.5408V9.41958L69.4538 1.00409H71.5838V9.75712H73.3414V9.74549ZM69.4306 9.74549V3.77433L65.3915 9.74549H69.4306Z" fill="white"/>
</svg>
