<svg width="59" height="18" viewBox="0 0 59 18" fill="none" xmlns="http://www.w3.org/2000/svg">
<path d="M23.8364 0.666016L20.9141 17.3784H25.5877L28.5124 0.666016H23.8364Z" fill="white"/>
<path d="M16.9949 0.685216L12.4173 12.0825L11.9293 10.3616C11.0265 8.2881 8.46368 5.31021 5.4549 3.43351L9.64052 17.3706L14.5859 17.3624L21.9462 0.681702L16.9949 0.685216Z" fill="white"/>
<path d="M10.155 1.88221C9.88335 0.864204 9.09599 0.560791 8.11871 0.524475H0.872604L0.8125 0.857174C6.45142 2.19031 10.1827 5.4025 11.7309 9.26487L10.155 1.88221Z" fill="white"/>
<path d="M37.9841 3.87088C39.5132 3.84745 40.6215 4.17313 41.4821 4.51051L41.904 4.70381L42.5364 1.0816C41.6108 0.743039 40.1599 0.379883 38.3495 0.379883C33.7311 0.379883 30.4759 2.64669 30.4508 5.8952C30.4207 8.29555 32.7696 9.63573 34.5438 10.4358C36.3649 11.2559 36.9756 11.7772 36.9672 12.5094C36.9527 13.6281 35.5151 14.1412 34.1723 14.1412C32.3007 14.1412 31.3066 13.8894 29.7715 13.2661L29.1694 12.999L28.5117 16.7395C29.6057 17.207 31.6239 17.6087 33.7192 17.6299C38.632 17.6299 41.8247 15.39 41.8585 11.9189C41.8789 10.02 40.6323 8.57084 37.9312 7.3818C36.2964 6.60628 35.2963 6.09084 35.3059 5.30828C35.3059 4.61359 36.1546 3.87088 37.9841 3.87088Z" fill="white"/>
<path d="M54.5305 0.685547H50.9195C49.798 0.685547 48.9638 0.983102 48.4709 2.07257L41.5314 17.3884H46.4394C46.4394 17.3884 47.24 15.3289 47.4215 14.878C47.9589 14.878 52.7275 14.885 53.4066 14.885C53.546 15.4684 53.9764 17.3884 53.9764 17.3884H58.3123L54.5305 0.685547ZM48.7666 11.4573C49.1513 10.4978 50.6286 6.7866 50.6286 6.7866C50.6034 6.83228 51.0097 5.82012 51.2513 5.19104L51.5663 6.63197C51.5663 6.63197 52.4618 10.622 52.6493 11.4573H48.7666Z" fill="white"/>
</svg>
