<svg width="124" height="60" viewBox="0 0 124 60" fill="none" xmlns="http://www.w3.org/2000/svg">
<g clip-path="url(#clip0_664_7470)">
<path d="M35.5734 59.5742C35.0984 59.5827 34.6286 59.4727 34.2066 59.254C33.8142 59.0559 33.4853 58.7514 33.2577 58.3753C33.0301 57.9868 32.9102 57.5447 32.9102 57.0944C32.9102 56.6442 33.0301 56.202 33.2577 55.8136C33.4864 55.4369 33.8166 55.1323 34.2106 54.9348C34.635 54.7196 35.1055 54.6111 35.5813 54.6186C36.0222 54.611 36.4591 54.7046 36.8583 54.8919C37.2126 55.0569 37.52 55.3079 37.7526 55.6221C37.9743 55.9135 38.1096 56.2613 38.1431 56.6258H37.2215C37.1947 56.4008 37.1069 56.1874 36.9676 56.0088C36.817 55.8159 36.6211 55.663 36.3975 55.5636C36.1387 55.4469 35.8573 55.3896 35.5734 55.3956C35.2591 55.3897 34.9481 55.4607 34.6675 55.6027C34.411 55.737 34.1992 55.9433 34.0582 56.1962C33.9196 56.4753 33.8474 56.7828 33.8474 57.0944C33.8474 57.4061 33.9196 57.7135 34.0582 57.9926C34.1992 58.2455 34.411 58.4518 34.6675 58.5862C34.9473 58.73 35.2589 58.8012 35.5734 58.7932C35.8568 58.7989 36.138 58.743 36.3975 58.6291C36.6223 58.528 36.8173 58.3707 36.9637 58.1722C37.102 57.9867 37.1906 57.769 37.2215 57.5396H38.1235C38.0901 57.9077 37.9549 58.2593 37.733 58.555C37.502 58.8734 37.1945 59.1286 36.8388 59.2969C36.4436 59.4844 36.0109 59.5793 35.5734 59.5742Z" fill="#0C4D47"/>
<path d="M42.804 59.5738C42.3238 59.5836 41.8486 59.4736 41.4216 59.2536C41.03 59.0544 40.7014 58.7501 40.4727 58.375C40.2474 57.9857 40.1289 57.5438 40.1289 57.094C40.1289 56.6442 40.2474 56.2024 40.4727 55.8131C40.7014 55.438 41.03 55.1337 41.4216 54.9344C41.8527 54.7263 42.3254 54.6182 42.804 54.6182C43.2828 54.6182 43.7555 54.7263 44.1865 54.9344C44.5793 55.1336 44.9091 55.4378 45.1395 55.8131C45.3646 56.2024 45.4832 56.6442 45.4832 57.094C45.4832 57.5438 45.3646 57.9857 45.1395 58.375C44.9091 58.7502 44.5793 59.0544 44.1865 59.2536C43.7594 59.4736 43.2844 59.5836 42.804 59.5738ZM42.804 58.7928C43.1236 58.8003 43.4401 58.7292 43.7257 58.5859C43.9822 58.4514 44.194 58.2452 44.335 57.9922C44.4736 57.7131 44.5458 57.4056 44.5458 57.094C44.5458 56.7823 44.4736 56.4749 44.335 56.1958C44.194 55.9429 43.9822 55.7366 43.7257 55.6022C43.4396 55.4604 43.1234 55.3894 42.804 55.3953C42.4859 55.3884 42.1708 55.4595 41.8864 55.6022C41.6282 55.7343 41.4159 55.9412 41.2772 56.1958C41.1358 56.4742 41.0622 56.7819 41.0622 57.094C41.0622 57.4061 41.1358 57.7139 41.2772 57.9922C41.4159 58.2469 41.6282 58.4538 41.8864 58.5859C42.1703 58.7299 42.4857 58.801 42.804 58.7928Z" fill="#0C4D47"/>
<path d="M49.8489 59.574C49.4194 59.5849 48.992 59.5105 48.5915 59.3554C48.2803 59.2295 48.0099 59.02 47.8104 58.7501C47.6297 58.491 47.5316 58.1834 47.5293 57.8675H48.4352C48.4345 58.0463 48.4951 58.22 48.6071 58.3594C48.7392 58.5158 48.9122 58.6322 49.1069 58.6954C49.3582 58.7811 49.6226 58.8221 49.8879 58.8165C50.1727 58.8295 50.4562 58.7704 50.712 58.6446C50.805 58.5964 50.8823 58.5226 50.9349 58.432C50.9875 58.3414 51.0131 58.2377 51.0088 58.133C51.016 58.0082 50.9755 57.8854 50.8955 57.7893C50.7969 57.6844 50.6712 57.6087 50.5323 57.5707C50.3001 57.4992 50.0623 57.447 49.8215 57.4144C49.3991 57.3675 48.9828 57.276 48.5798 57.1411C48.3284 57.0665 48.1053 56.9182 47.9393 56.7154C47.8039 56.5154 47.7368 56.2771 47.748 56.0359C47.7418 55.764 47.8286 55.4981 47.9939 55.2822C48.1801 55.0565 48.4246 54.8864 48.7008 54.7901C49.0484 54.6696 49.4147 54.6115 49.7825 54.6184C50.1631 54.61 50.5415 54.6777 50.8955 54.8174C51.1884 54.932 51.4438 55.1252 51.6335 55.3759C51.8048 55.6088 51.8953 55.8913 51.8914 56.1804H50.9659C50.9724 56.0149 50.9135 55.8536 50.8017 55.7313C50.6803 55.6051 50.5283 55.5122 50.3606 55.4619C50.154 55.4006 49.9393 55.3717 49.7239 55.3759C49.4547 55.3629 49.1864 55.4165 48.9429 55.5322C48.8562 55.5743 48.7835 55.6405 48.7337 55.723C48.6838 55.8054 48.6589 55.9005 48.6618 55.9968C48.656 56.1174 48.698 56.2353 48.7789 56.3249C48.8907 56.4232 49.0247 56.4929 49.1694 56.528C49.4321 56.5969 49.6998 56.6452 49.9699 56.6725C50.3528 56.7094 50.7294 56.7948 51.0908 56.9263C51.3389 57.0149 51.5551 57.1753 51.7117 57.3871C51.8478 57.6014 51.9159 57.8519 51.907 58.1057C51.911 58.3869 51.8217 58.6615 51.6531 58.8867C51.4631 59.1178 51.2132 59.2921 50.9307 59.3904C50.5839 59.5156 50.2176 59.5778 49.8489 59.574Z" fill="#0C4D47"/>
<path d="M54.2949 59.485V54.7051H55.5798L57.2395 57.9503H57.3019L58.9773 54.7051H60.223V59.485H59.3366V55.7361H59.2819L57.6885 58.8017H56.8255L55.24 55.7361H55.1814V59.485H54.2949Z" fill="#0C4D47"/>
<path d="M62.7637 59.485V54.7051H66.5049V55.451H63.6541V58.7392H66.5478V59.485H62.7637ZM63.1932 57.4153V56.6812H66.3174V57.4153H63.1932Z" fill="#0C4D47"/>
<path d="M70.2163 59.485V55.4588H68.4434V54.7051H72.8797V55.4588H71.1068V59.485H70.2163Z" fill="#0C4D47"/>
<path d="M75.0078 59.485V54.7051H75.8865V59.485H75.0078Z" fill="#0C4D47"/>
<path d="M80.8334 59.5738C80.3583 59.5824 79.8885 59.4723 79.4665 59.2536C79.0749 59.0544 78.7463 58.7501 78.5177 58.3749C78.2923 57.9856 78.1738 57.5437 78.1738 57.094C78.1738 56.6442 78.2923 56.2024 78.5177 55.8131C78.7463 55.4364 79.0765 55.1319 79.4705 54.9344C79.8949 54.7193 80.3653 54.6106 80.8412 54.6181C81.2822 54.6102 81.7191 54.7038 82.1182 54.8915C82.4725 55.0565 82.78 55.3076 83.0125 55.6218C83.2272 55.9152 83.3557 56.2628 83.3834 56.6253H82.4814C82.4546 56.4004 82.3668 56.1871 82.2275 56.0083C82.077 55.8154 81.881 55.6626 81.6574 55.5631C81.3986 55.4466 81.1172 55.3892 80.8334 55.3953C80.519 55.3892 80.208 55.4604 79.9274 55.6022C79.6711 55.7355 79.4604 55.9422 79.3221 56.1959C79.1808 56.4742 79.1071 56.7818 79.1071 57.094C79.1071 57.4061 79.1808 57.7139 79.3221 57.9922C79.4604 58.2459 79.6711 58.4526 79.9274 58.5859C80.2073 58.7297 80.5188 58.8008 80.8334 58.7928C81.1167 58.7986 81.3979 58.7426 81.6574 58.6288C81.8766 58.5253 82.066 58.3682 82.2081 58.1719C82.3463 57.9862 82.4349 57.7686 82.4658 57.5393H83.3796C83.3482 57.9078 83.2128 58.2599 82.9891 58.5545C82.758 58.8731 82.4504 59.1283 82.0947 59.2966C81.7008 59.4835 81.2695 59.5783 80.8334 59.5738Z" fill="#0C4D47"/>
<path d="M87.724 59.574C87.2946 59.5845 86.8672 59.5103 86.4665 59.3554C86.1554 59.2295 85.8851 59.02 85.6855 58.7501C85.5047 58.4913 85.408 58.1831 85.4082 57.8675H86.3104C86.3096 58.0463 86.3703 58.22 86.4822 58.3594C86.6142 58.5158 86.7874 58.6322 86.9821 58.6954C87.2333 58.7811 87.4976 58.8221 87.7631 58.8165C88.0479 58.8295 88.3313 58.7704 88.587 58.6446C88.68 58.5964 88.7574 58.5226 88.81 58.432C88.8625 58.3414 88.8882 58.2377 88.8838 58.133C88.8912 58.0082 88.8507 57.8854 88.7706 57.7893C88.6721 57.6844 88.5464 57.6087 88.4075 57.5707C88.1753 57.4988 87.9376 57.4466 87.6967 57.4144C87.2743 57.3675 86.858 57.276 86.4548 57.1411C86.204 57.0656 85.9811 56.9175 85.8144 56.7154C85.6791 56.5154 85.612 56.2771 85.623 56.0359C85.6169 55.764 85.7037 55.4981 85.8691 55.2822C86.0559 55.0575 86.3002 54.8874 86.5759 54.7901C86.9235 54.6696 87.2897 54.6115 87.6576 54.6184C88.0382 54.61 88.4165 54.6777 88.7706 54.8174C89.0635 54.932 89.319 55.1252 89.5087 55.3759C89.68 55.6088 89.7704 55.8913 89.7664 56.1804H88.8488C88.8538 56.0145 88.7936 55.8531 88.6808 55.7313C88.56 55.6042 88.4078 55.5112 88.2395 55.4619C88.033 55.4006 87.8184 55.3717 87.603 55.3759C87.3338 55.3629 87.0654 55.4165 86.822 55.5322C86.7352 55.5743 86.6626 55.6405 86.6127 55.723C86.5628 55.8054 86.5379 55.9005 86.5408 55.9968C86.535 56.1174 86.5771 56.2353 86.658 56.3249C86.7702 56.4225 86.9041 56.492 87.0485 56.528C87.3112 56.5969 87.5788 56.6452 87.849 56.6725C88.2319 56.7094 88.6084 56.7948 88.9698 56.9263C89.2178 57.0149 89.4341 57.1753 89.5907 57.3871C89.7269 57.6014 89.795 57.8519 89.786 58.1057C89.79 58.3869 89.7008 58.6615 89.5322 58.8867C89.343 59.1187 89.0928 59.2932 88.8097 59.3904C88.4616 59.516 88.094 59.5781 87.724 59.574Z" fill="#0C4D47"/>
<path d="M19.7254 24.9426C18.4683 24.2955 17.1749 23.7218 15.8515 23.2244L12.4735 21.9434C10.3647 21.1429 8.83771 20.268 7.92781 19.3386C7.46652 18.8666 7.10472 18.3068 6.86389 17.6923C6.62306 17.0778 6.5081 16.4213 6.52584 15.7616C6.4979 14.9943 6.63512 14.2302 6.92821 13.5207C7.22129 12.8113 7.6634 12.1731 8.22461 11.6493C9.43073 10.578 11.0062 10.0179 12.6179 10.0873C13.7128 10.0762 14.795 10.3223 15.7772 10.8058C16.6713 11.2255 17.4242 11.8956 17.9446 12.735C18.3353 13.3843 18.6261 14.0885 18.8076 14.8243C19.003 15.7515 19.1218 16.6933 19.1631 17.64H24.0602C24.0015 14.9804 23.0292 12.8716 21.1703 11.3643C19.2177 9.80217 16.4841 9.02113 13.0358 9.02113C11.4339 9.00302 9.8371 9.20673 8.29099 9.62643C6.99973 9.97507 5.78603 10.5647 4.71384 11.3643C3.76322 12.087 2.9877 13.0147 2.44492 14.0783C1.90029 15.169 1.62446 16.3741 1.64045 17.593C1.6204 18.603 1.81949 19.6053 2.22398 20.531C2.62848 21.4565 3.22879 22.2835 3.98357 22.9549C4.30327 23.2778 4.65088 23.5718 5.02235 23.8335C5.37772 24.0795 5.77995 24.3295 6.22514 24.5795C6.73234 24.866 7.2537 25.1266 7.78723 25.3605C8.37691 25.6221 9.09937 25.919 9.93507 26.2352L13.1061 27.4068C14.1523 27.8161 15.1722 28.2894 16.16 28.8244C16.9201 29.2255 17.6163 29.7374 18.2258 30.3434C18.7468 30.869 19.1468 31.5021 19.3973 32.1985C19.6392 32.9221 19.7581 33.6811 19.7488 34.4439C19.7741 35.2605 19.616 36.0724 19.2862 36.8198C18.9564 37.5673 18.4632 38.2313 17.8431 38.7631C16.6051 39.8292 14.9415 40.372 12.9108 40.372C11.7252 40.382 10.5537 40.1144 9.48989 39.591C8.5279 39.1439 7.71952 38.4224 7.1663 37.5173C6.73855 36.8014 6.4225 36.0245 6.22905 35.2132C6.01609 34.2023 5.9023 33.173 5.8893 32.1398H1C1.01998 33.2039 1.20711 34.2582 1.55454 35.264C1.89884 36.2985 2.44729 37.2533 3.16739 38.0718C5.11998 40.3174 8.34176 41.4538 12.7546 41.4538C14.4675 41.4685 16.1746 41.2556 17.8313 40.8211C19.1472 40.4998 20.3884 39.9269 21.4867 39.1341C22.4569 38.3387 23.2318 37.3314 23.7517 36.1896C24.2896 35.0188 24.5655 33.7447 24.56 32.4562C24.5939 31.344 24.3866 30.2375 23.9524 29.2129C23.5184 28.1882 22.8676 27.2697 22.0451 26.5203C21.3288 25.9151 20.5514 25.3863 19.7254 24.9426Z" fill="#0C4D47"/>
<path d="M23.7754 10.8878H35.327V40.8094H40.6302V10.8878H52.1856V9.65771H23.7754V10.8878Z" fill="#0C4D47"/>
<path d="M96.229 9.65771L87.3915 25.8799L77.6051 9.65771H71.8722H54.7949V40.8094H75.6057V39.5794H60.0981V25.3761H73.2117V24.1421H60.0981V10.8918H72.6143L82.9084 27.9418V40.8094H88.2116V27.4146L99.3922 9.65771H96.229Z" fill="#0C4D47"/>
<path d="M71.872 0.352051H66.8069L60.707 7.98279H61.7184L71.872 0.352051Z" fill="#0C4D47"/>
<path d="M109.523 9.65771H103.97L105.641 12.5749L92.9102 40.8094H95.9639L101.556 26.6063H111.71L117.638 40.8094H123.148L109.523 9.65771ZM102.04 25.3761L106.496 14.0511L111.218 25.3761H102.04Z" fill="#0C4D47"/>
</g>
<defs>
<clipPath id="clip0_664_7470">
<rect width="122.222" height="60" fill="white" transform="translate(0.888672)"/>
</clipPath>
</defs>
</svg>
