<svg width="165" height="81" viewBox="0 0 165 81" fill="none" xmlns="http://www.w3.org/2000/svg">
<path d="M46.6726 80.4251C46.0313 80.4365 45.397 80.2879 44.8274 79.9928C44.2976 79.7253 43.8536 79.3142 43.5464 78.8065C43.2391 78.2821 43.0771 77.6852 43.0771 77.0773C43.0771 76.4695 43.2391 75.8726 43.5464 75.3482C43.8551 74.8396 44.3008 74.4285 44.8327 74.1619C45.4056 73.8713 46.0409 73.7248 46.6832 73.735C47.2785 73.7247 47.8682 73.851 48.4071 74.1039C48.8855 74.3266 49.3005 74.6656 49.6145 75.0897C49.9137 75.483 50.0964 75.9526 50.1416 76.4447H48.8974C48.8613 76.141 48.7428 75.8528 48.5547 75.6117C48.3514 75.3513 48.0869 75.1449 47.7851 75.0107C47.4357 74.8532 47.0558 74.7758 46.6726 74.7839C46.2483 74.7759 45.8283 74.8718 45.4496 75.0634C45.1033 75.2448 44.8174 75.5234 44.627 75.8648C44.4399 76.2416 44.3425 76.6566 44.3425 77.0773C44.3425 77.4981 44.4399 77.9131 44.627 78.2899C44.8174 78.6313 45.1033 78.9098 45.4496 79.0912C45.8274 79.2853 46.2479 79.3815 46.6726 79.3707C47.0551 79.3784 47.4347 79.303 47.7851 79.1492C48.0886 79.0127 48.3518 78.8003 48.5495 78.5323C48.7361 78.2819 48.8558 77.988 48.8974 77.6783H50.1152C50.0701 78.1753 49.8876 78.6499 49.588 79.0491C49.2762 79.4789 48.861 79.8234 48.3808 80.0507C47.8473 80.3038 47.2631 80.4319 46.6726 80.4251Z" fill="white"/>
<path d="M56.4347 80.4245C55.7863 80.4377 55.1449 80.2892 54.5684 79.9922C54.0397 79.7233 53.5961 79.3125 53.2874 78.806C52.9832 78.2805 52.8232 77.6839 52.8232 77.0767C52.8232 76.4696 52.9832 75.8731 53.2874 75.3476C53.5961 74.8411 54.0397 74.4304 54.5684 74.1613C55.1504 73.8803 55.7885 73.7344 56.4347 73.7344C57.081 73.7344 57.7191 73.8803 58.301 74.1613C58.8312 74.4302 59.2765 74.8408 59.5875 75.3476C59.8915 75.8731 60.0515 76.4696 60.0515 77.0767C60.0515 77.6839 59.8915 78.2805 59.5875 78.806C59.2765 79.3127 58.8312 79.7233 58.301 79.9922C57.7245 80.2892 57.0832 80.4377 56.4347 80.4245ZM56.4347 79.3701C56.866 79.3803 57.2933 79.2843 57.6789 79.0908C58.0252 78.9092 58.3111 78.6309 58.5014 78.2893C58.6886 77.9125 58.786 77.4975 58.786 77.0767C58.786 76.656 58.6886 76.241 58.5014 75.8642C58.3111 75.5228 58.0252 75.2442 57.6789 75.0629C57.2926 74.8713 56.8659 74.7755 56.4347 74.7835C56.0051 74.7742 55.5798 74.8702 55.1958 75.0629C54.8472 75.2411 54.5607 75.5205 54.3734 75.8642C54.1826 76.24 54.0832 76.6554 54.0832 77.0767C54.0832 77.4981 54.1826 77.9136 54.3734 78.2893C54.5607 78.6332 54.8472 78.9125 55.1958 79.0908C55.5792 79.2852 56.005 79.3812 56.4347 79.3701Z" fill="white"/>
<path d="M65.9469 80.4254C65.3671 80.4401 64.7901 80.3397 64.2494 80.1302C63.8293 79.9603 63.4642 79.6775 63.1949 79.3131C62.9509 78.9634 62.8185 78.548 62.8154 78.1216H64.0385C64.0375 78.3631 64.1193 78.5975 64.2705 78.7858C64.4487 78.9969 64.6824 79.1539 64.9452 79.2393C65.2845 79.3551 65.6414 79.4104 65.9996 79.4027C66.3841 79.4204 66.7668 79.3405 67.1121 79.1707C67.2376 79.1056 67.342 79.006 67.413 78.8837C67.484 78.7614 67.5186 78.6213 67.5127 78.4801C67.5225 78.3116 67.4678 78.1457 67.3598 78.0161C67.2267 77.8744 67.0571 77.7722 66.8695 77.7209C66.556 77.6244 66.235 77.5539 65.91 77.51C65.3397 77.4466 64.7777 77.3231 64.2336 77.141C63.8943 77.0403 63.5931 76.8401 63.3689 76.5663C63.1862 76.2963 63.0956 75.9746 63.1106 75.6489C63.1023 75.2819 63.2195 74.9229 63.4427 74.6315C63.694 74.3268 64.0241 74.0971 64.397 73.9671C64.8662 73.8045 65.3607 73.726 65.8572 73.7353C66.371 73.724 66.8819 73.8155 67.3598 74.004C67.7552 74.1586 68.1 74.4195 68.3562 74.758C68.5873 75.0724 68.7095 75.4538 68.7042 75.844H67.4548C67.4636 75.6207 67.3841 75.4029 67.2332 75.2378C67.0693 75.0674 66.8641 74.942 66.6376 74.8741C66.3588 74.7913 66.069 74.7523 65.7782 74.758C65.4148 74.7404 65.0525 74.8129 64.7238 74.9689C64.6068 75.0257 64.5087 75.1152 64.4414 75.2266C64.374 75.3377 64.3403 75.4662 64.3442 75.5962C64.3364 75.759 64.3932 75.9182 64.5025 76.0391C64.6533 76.1719 64.8342 76.2659 65.0296 76.3133C65.3842 76.4063 65.7456 76.4715 66.1103 76.5084C66.6272 76.5582 67.1356 76.6734 67.6234 76.8511C67.9584 76.9706 68.2502 77.1872 68.4616 77.4731C68.6455 77.7624 68.7374 78.1005 68.7253 78.4432C68.7307 78.8228 68.6102 79.1936 68.3826 79.4976C68.1261 79.8096 67.7887 80.0449 67.4073 80.1776C66.9392 80.3466 66.4446 80.4305 65.9469 80.4254Z" fill="white"/>
<path d="M71.9443 80.3045V73.8516H73.6789L75.9195 78.2326H76.0038L78.2655 73.8516H79.9473V80.3045H78.7505V75.2434H78.6767L76.5257 79.382H75.3607L73.2203 75.2434H73.1411V80.3045H71.9443Z" fill="white"/>
<path d="M83.3818 80.3045V73.8516H88.4324V74.8586H84.584V79.2976H88.4904V80.3045H83.3818ZM83.9618 77.5103V76.5193H88.1794V77.5103H83.9618Z" fill="white"/>
<path d="M93.4394 80.3045V74.869H91.0459V73.8516H97.035V74.869H94.6415V80.3045H93.4394Z" fill="white"/>
<path d="M99.9092 80.3045V73.8516H101.095V80.3045H99.9092Z" fill="white"/>
<path d="M107.775 80.4251C107.134 80.4367 106.499 80.2882 105.93 79.9928C105.401 79.7239 104.957 79.3131 104.649 78.8067C104.345 78.2811 104.185 77.6846 104.185 77.0774C104.185 76.4702 104.345 75.8738 104.649 75.3482C104.957 74.8397 105.403 74.4286 105.935 74.1619C106.508 73.8715 107.143 73.7249 107.786 73.735C108.381 73.7242 108.971 73.8506 109.509 74.104C109.988 74.3268 110.403 74.6658 110.717 75.09C111.007 75.486 111.18 75.9553 111.218 76.4447H110C109.964 76.1411 109.845 75.853 109.657 75.6117C109.454 75.3513 109.189 75.145 108.887 75.0108C108.538 74.8534 108.158 74.776 107.775 74.7842C107.351 74.776 106.931 74.872 106.552 75.0635C106.206 75.2434 105.921 75.5224 105.735 75.865C105.544 76.2406 105.444 76.656 105.444 77.0774C105.444 77.4988 105.544 77.9143 105.735 78.2899C105.921 78.6325 106.206 78.9115 106.552 79.0914C106.93 79.2855 107.35 79.3815 107.775 79.3708C108.157 79.3786 108.537 79.303 108.887 79.1494C109.183 79.0096 109.439 78.7975 109.631 78.5326C109.817 78.2819 109.937 77.9881 109.979 77.6785H111.212C111.17 78.176 110.987 78.6514 110.685 79.0491C110.373 79.4792 109.958 79.8237 109.478 80.0509C108.946 80.3032 108.364 80.4312 107.775 80.4251Z" fill="white"/>
<path d="M117.075 80.4254C116.495 80.4396 115.918 80.3394 115.377 80.1302C114.957 79.9603 114.592 79.6775 114.323 79.3131C114.079 78.9637 113.948 78.5477 113.948 78.1216H115.166C115.165 78.3631 115.247 78.5975 115.398 78.7858C115.576 78.9969 115.81 79.1539 116.073 79.2393C116.412 79.3551 116.769 79.4104 117.127 79.4027C117.512 79.4204 117.894 79.3405 118.24 79.1707C118.365 79.1056 118.47 79.006 118.541 78.8837C118.612 78.7614 118.646 78.6213 118.64 78.4801C118.65 78.3116 118.596 78.1457 118.488 78.0161C118.354 77.8744 118.185 77.7722 117.997 77.7209C117.684 77.624 117.363 77.5534 117.038 77.51C116.467 77.4466 115.905 77.3231 115.361 77.141C115.023 77.0391 114.722 76.8391 114.497 76.5663C114.314 76.2963 114.223 75.9746 114.238 75.6489C114.23 75.2819 114.347 74.9229 114.57 74.6315C114.823 74.3281 115.152 74.0986 115.525 73.9671C115.994 73.8045 116.488 73.726 116.985 73.7353C117.499 73.724 118.009 73.8155 118.488 74.004C118.883 74.1586 119.228 74.4195 119.484 74.758C119.715 75.0724 119.837 75.4538 119.832 75.844H118.593C118.6 75.62 118.519 75.4022 118.366 75.2378C118.203 75.0662 117.998 74.9407 117.77 74.8741C117.492 74.7913 117.202 74.7523 116.911 74.758C116.548 74.7404 116.185 74.8129 115.857 74.9689C115.74 75.0257 115.642 75.1152 115.574 75.2266C115.507 75.3377 115.473 75.4662 115.477 75.5962C115.469 75.759 115.526 75.9182 115.635 76.0391C115.787 76.1709 115.968 76.2648 116.163 76.3133C116.517 76.4063 116.879 76.4715 117.243 76.5084C117.76 76.5582 118.269 76.6734 118.756 76.8511C119.091 76.9706 119.383 77.1872 119.595 77.4731C119.778 77.7624 119.87 78.1005 119.858 78.4432C119.864 78.8228 119.743 79.1936 119.516 79.4976C119.26 79.8107 118.922 80.0463 118.54 80.1776C118.07 80.3471 117.574 80.431 117.075 80.4254Z" fill="white"/>
<path d="M25.2784 33.6733C23.5812 32.7996 21.8351 32.0251 20.0485 31.3536L15.4882 29.6243C12.6413 28.5436 10.5799 27.3626 9.35156 26.1079C8.72882 25.4706 8.24039 24.7149 7.91527 23.8853C7.59016 23.0558 7.43496 22.1694 7.45891 21.2788C7.42119 20.2431 7.60644 19.2115 8.00211 18.2537C8.39777 17.2959 8.99461 16.4343 9.75225 15.7273C11.3805 14.2811 13.5074 13.5248 15.6833 13.6185C17.1613 13.6036 18.6222 13.9358 19.9482 14.5886C21.1553 15.1551 22.1718 16.0598 22.8743 17.1929C23.4016 18.0695 23.7943 19.0202 24.0393 20.0135C24.303 21.2653 24.4635 22.5366 24.5192 23.8146H31.1303C31.0511 20.2243 29.7385 17.3774 27.2289 15.3424C24.593 13.2336 20.9025 12.1792 16.2474 12.1792C14.0847 12.1548 11.9291 12.4298 9.84186 12.9964C8.09866 13.4671 6.46017 14.2631 5.0127 15.3424C3.72937 16.3181 2.68242 17.5706 1.94967 19.0065C1.21441 20.4788 0.842039 22.1057 0.863632 23.7513C0.836568 25.1147 1.10533 26.4679 1.6514 27.7175C2.19747 28.967 3.00789 30.0834 4.02684 30.9898C4.45844 31.4257 4.92771 31.8226 5.42919 32.1759C5.90895 32.508 6.45195 32.8455 7.05297 33.183C7.73768 33.5697 8.44152 33.9216 9.16178 34.2373C9.95785 34.5905 10.9332 34.9913 12.0614 35.4182L16.3422 36.9999C17.7546 37.5524 19.1314 38.1915 20.465 38.9136C21.4911 39.4551 22.431 40.1462 23.2539 40.9644C23.9572 41.6739 24.4971 42.5286 24.8354 43.4687C25.162 44.4455 25.3225 45.4701 25.3099 46.5C25.344 47.6024 25.1306 48.6984 24.6854 49.7074C24.2402 50.7165 23.5744 51.613 22.7371 52.3309C21.066 53.7701 18.8201 54.503 16.0787 54.503C14.4781 54.5164 12.8965 54.1552 11.4604 53.4486C10.1617 52.845 9.07037 51.871 8.32353 50.6491C7.74606 49.6826 7.3194 48.6337 7.05824 47.5386C6.77075 46.1738 6.61713 44.7843 6.59958 43.3895H-0.000976562C0.0259975 44.8259 0.278622 46.2493 0.747649 47.6071C1.21246 49.0037 1.95287 50.2927 2.925 51.3977C5.561 54.4292 9.9104 55.9634 15.8678 55.9634C18.1801 55.9831 20.4847 55.6958 22.7213 55.1092C24.4978 54.6754 26.1734 53.902 27.656 52.8318C28.9659 51.758 30.0119 50.3981 30.7138 48.8566C31.44 47.276 31.8124 45.556 31.8051 43.8166C31.8508 42.315 31.5709 40.8213 30.9848 39.4382C30.3989 38.0548 29.5203 36.8148 28.41 35.8031C27.4429 34.9861 26.3935 34.2723 25.2784 33.6733Z" fill="white"/>
<path d="M30.7451 14.6988H46.3397V55.0929H53.4991V14.6988H69.0989V13.0381H30.7451V14.6988Z" fill="white"/>
<path d="M128.558 13.0381L116.627 34.9381L103.416 13.0381H72.6221V55.0929H100.717V53.4323H79.7814V34.2579H97.4848V32.592H79.7814V14.704H96.6782L110.575 37.7216V55.0929H117.735V37.0099L132.828 13.0381H128.558Z" fill="white"/>
<path d="M95.6771 0.474609H88.8393L80.6045 10.7761H81.9699L95.6771 0.474609Z" fill="white"/>
<path d="M146.504 13.0381H139.007L141.264 16.9763L124.077 55.0929H128.2L135.749 35.9187H149.457L157.46 55.0929H164.898L146.504 13.0381ZM136.403 34.2579L142.418 18.9691L148.792 34.2579H136.403Z" fill="white"/>
</svg>
